<?xml version="1.0" encoding="UTF-8"?>
<!DOCTYPE svg PUBLIC "-//W3C//DTD SVG 1.1//EN" "http://www.w3.org/Graphics/SVG/1.1/DTD/svg11.dtd">
<!-- Creator: CorelDRAW X5 -->
<svg xmlns="http://www.w3.org/2000/svg" xml:space="preserve" width="52.9167mm" height="12.429mm" style="shape-rendering:geometricPrecision; text-rendering:geometricPrecision; image-rendering:optimizeQuality; fill-rule:evenodd; clip-rule:evenodd"
viewBox="0 0 4.51336 1.06009"
 xmlns:xlink="http://www.w3.org/1999/xlink">
 <defs>
  <style type="text/css">
   <![CDATA[
    .fil0 {fill:#2B2A29;fill-rule:nonzero}
   ]]>
  </style>
 </defs>
 <g id="Layer_x0020_1">
  <metadata id="CorelCorpID_0Corel-Layer"/>
  <path class="fil0" d="M0.725031 1.04276l0.192085 0 -0.361065 -1.02543 -0.194977 0 -0.361074 1.02543 0.192094 0 0.0866564 -0.262861 0.359624 0 0.0866564 0.262861zm-0.264302 -0.847783c0,0.000238817 0.00120261,0.00601307 0.00360784,0.0166063 0.00240523,0.010832 0.00553543,0.0245555 0.00962943,0.0411618 0.00384666,0.0166063 0.00817948,0.0339376 0.0129985,0.051755 0.00481045,0.0180477 0.00938209,0.0344152 0.0142011,0.0493413l0.0909892 0.274409 -0.268635 0 0.0909892 -0.274409c0.0050578,-0.014926 0.0103459,-0.0312935 0.0154037,-0.0493413 0.0050578,-0.0178174 0.00962943,-0.0351487 0.0139623,-0.051755 0.004094,-0.0166063 0.00746302,-0.0303297 0.0101071,-0.0411618 0.00241376,-0.0105932 0.00385519,-0.0163675 0.00385519,-0.0166063l0.00289139 0zm0.587813 0.847783l0.349517 0c0.0794322,-0.000238817 0.151162,-0.0117958 0.215191,-0.0349014 0.0640285,-0.0231141 0.118914,-0.0565655 0.164886,-0.100857 0.0457419,-0.044292 0.0808821,-0.0979746 0.105438,-0.161517 0.024547,-0.0635509 0.0370678,-0.135767 0.0373066,-0.216888 -0.000238817,-0.0811124 -0.0127596,-0.15309 -0.0373066,-0.216394 -0.0245555,-0.063312 -0.0596957,-0.116747 -0.105438,-0.160553 -0.0459722,-0.0438144 -0.100857,-0.0772743 -0.164886,-0.0999022 -0.0640285,-0.0228667 -0.135759,-0.0344152 -0.215191,-0.0344152l-0.349517 0 0 1.02543zm0.186311 -0.160314l0 -0.7048 0.15309 0c0.0515162,0 0.0979746,0.00770184 0.139853,0.0226194 0.0416479,0.0151649 0.0775131,0.0375539 0.107604,0.0671587 0.0298436,0.0298521 0.0529491,0.0664422 0.0690778,0.110009 0.0161287,0.043567 0.0240778,0.0941194 0.0243167,0.151162 -0.000238817,0.0770355 -0.0144484,0.142028 -0.0421256,0.194499 -0.0276857,0.0524715 -0.0671587,0.0921918 -0.11795,0.118914 -0.0507912,0.0269607 -0.110965,0.0404368 -0.180776,0.0404368l-0.15309 0zm0.801571 0.0404368c0,0.000486163 0.00481045,0.0050578 0.0144399,0.0142011 0.00939062,0.0091518 0.0235917,0.0204615 0.0423644,0.0341849 0.0185339,0.0134761 0.0416479,0.0269607 0.0688475,0.0404368 0.0274383,0.0137234 0.0589707,0.0250331 0.0948359,0.0341849 0.0356263,0.00914327 0.0753467,0.0137234 0.118914,0.0142011 0.0572904,-0.000477634 0.108082,-0.00962943 0.152612,-0.0279245 0.0447696,-0.0182951 0.0825624,-0.0433282 0.113617,-0.0748605 0.0308074,-0.0315323 0.0543991,-0.0673975 0.0705277,-0.107357 0.0161287,-0.040198 0.0243081,-0.0823236 0.0243081,-0.126377 -0.000238817,-0.0445308 -0.00817948,-0.0840038 -0.0238305,-0.118905 -0.0156425,-0.0346626 -0.0365901,-0.0645146 -0.0630647,-0.0895478 -0.0267219,-0.0250331 -0.0565655,-0.0452558 -0.0897866,-0.0601818 -0.0332211,-0.0151649 -0.0676363,-0.0252719 -0.103501,-0.0303297l0.251303 -0.29029 0 -0.116986 -0.626817 0 0 0.160314 0.306189 0c0.0303297,-0.000247346 0.0531964,-0.000963796 0.0683613,-0.00216641 0.0151649,-0.00121114 0.0226279,-0.00192759 0.0226279,-0.00216641l0 0.00288286c-0.000247346,0 -0.00361637,0.00313021 -0.0101156,0.00962943 -0.00649923,0.00626041 -0.0154037,0.0151649 -0.0264745,0.0269607 -0.0110709,0.011557 -0.0233529,0.0255193 -0.0370678,0.0414006l-0.187761 0.222415 0.0418868 0.095322 0.0707665 0c0.0300909,0 0.0584931,0.00313021 0.0849761,0.00962943 0.0262357,0.00626041 0.0495801,0.0161287 0.0698027,0.0291271 0.0202227,0.0132373 0.0358652,0.0296133 0.0474222,0.0495886 0.0113097,0.0199753 0.0170925,0.043567 0.0173313,0.0705277 -0.000238817,0.0296048 -0.00842682,0.055849 -0.0240693,0.0789545 -0.0158898,0.0228667 -0.0375539,0.040923 -0.0652396,0.0539214 -0.0276772,0.0132373 -0.0596957,0.0199753 -0.0955608,0.0202141 -0.0271995,-0.000238817 -0.0527103,-0.00384666 -0.076302,-0.010832 -0.0235917,-0.00697686 -0.045017,-0.0154037 -0.0642673,-0.0257496 -0.0190201,-0.0103544 -0.0353875,-0.0204615 -0.049111,-0.0308159 -0.0137149,-0.0103459 -0.0243081,-0.0187727 -0.0317712,-0.0257581 -0.00722421,-0.00697686 -0.0110709,-0.0105847 -0.0110709,-0.010832l-0.095322 0.142983zm1.25073 0.137209c0.05103,-0.000238817 0.0972496,-0.00939062 0.13865,-0.0269607 0.0414006,-0.0175701 0.0770269,-0.0421256 0.106632,-0.0734191 0.0298521,-0.0312935 0.05248,-0.0678751 0.0686087,-0.109284 0.0158813,-0.0414006 0.0238305,-0.0861702 0.0240693,-0.13407 -0.000238817,-0.0464584 -0.00770184,-0.0905116 -0.0231141,-0.131435 -0.0151649,-0.0411618 -0.0370678,-0.0775046 -0.0657087,-0.109037 -0.0286495,-0.0315323 -0.063312,-0.0563266 -0.103749,-0.0743829 -0.0404368,-0.0180563 -0.0859314,-0.0271995 -0.136723,-0.0274383 -0.0247943,0 -0.0498274,0.00313021 -0.0746217,0.00938209 -0.0245555,0.00626041 -0.0474222,0.0146872 -0.0678837,0.0255193 -0.0207003,0.010832 -0.0373066,0.0231055 -0.0495801,0.0373066l-0.00289139 0c0.00649923,-0.035379 0.0168451,-0.0693251 0.0308074,-0.10206 0.0142011,-0.0324961 0.0324961,-0.0618621 0.0548852,-0.0876202 0.0221417,-0.0259969 0.0488636,-0.0464499 0.0801571,-0.0616147 0.0310547,-0.0151649 0.0666811,-0.0228752 0.107118,-0.0231141 0.0267219,0.000238817 0.05103,0.00313021 0.0726941,0.008188 0.0219029,0.00504927 0.0389954,0.0101071 0.0519938,0.0154037 0.0127596,0.0050578 0.0194977,0.00770184 0.0197365,0.008188l0.0548852 -0.160314c0,-0.000247346 -0.00481898,-0.00241376 -0.0144484,-0.00674657 -0.0096209,-0.00433282 -0.0233443,-0.00938209 -0.0414006,-0.0149175 -0.0182951,-0.00578278 -0.040198,-0.0105932 -0.0659561,-0.014926 -0.0257496,-0.00433282 -0.0551155,-0.00649923 -0.0876116,-0.00673805 -0.0529576,0.000238817 -0.101344,0.00817948 -0.145397,0.0238305 -0.0438058,0.0156425 -0.0832874,0.0373066 -0.118189,0.0649923 -0.0351402,0.027916 -0.0654699,0.0601733 -0.0917056,0.0970023 -0.0259969,0.0370678 -0.0479084,0.0767881 -0.0652396,0.119391 -0.0173313,0.0428506 -0.0300824,0.0868952 -0.038748,0.13239 -0.00866564,0.0454946 -0.0129985,0.0907504 -0.0129985,0.135767 0.000477634,0.0772658 0.0110709,0.146113 0.0317712,0.206525 0.0207003,0.0601818 0.0493498,0.110973 0.0859314,0.152612 0.0365901,0.0416479 0.0784769,0.0734191 0.126138,0.0950832 0.0474137,0.0214253 0.0979661,0.0322573 0.151887,0.0324961zm0 -0.170421c-0.0271995,-0.000247346 -0.0529576,-0.00746302 -0.0772658,-0.0211865 -0.0243167,-0.0137234 -0.0457419,-0.0324961 -0.0645146,-0.0563266 -0.0185339,-0.0235917 -0.0334599,-0.0503051 -0.0440532,-0.080396 -0.010832,-0.0298521 -0.0161287,-0.0608983 -0.0163675,-0.0933944 0.000238817,-0.0214253 0.00794919,-0.0404453 0.0228667,-0.0570516 0.014926,-0.0166063 0.0349099,-0.0298436 0.0601818,-0.039473 0.0252719,-0.00962943 0.0534353,-0.0144484 0.08449,-0.0146872 0.0308074,0.000238817 0.0577681,0.0050578 0.0811209,0.014926 0.0233443,0.00986825 0.0430894,0.0233443 0.0587319,0.0406756 0.0158898,0.0173313 0.0279245,0.0373151 0.0358652,0.0601818 0.00794066,0.0228667 0.0120347,0.0471834 0.0120347,0.0734191 0,0.0324961 -0.00626041,0.0618621 -0.0185339,0.087859 -0.0120347,0.0259969 -0.0296048,0.0466972 -0.0524715,0.0621009 -0.0228667,0.0151649 -0.0500748,0.0231055 -0.0820847,0.0233529zm0.853565 0.170421c0.0558405,-0.000238817 0.104704,-0.00914327 0.146352,-0.0269607 0.0416394,-0.0178089 0.0770269,-0.042842 0.105907,-0.0753382 0.0288883,-0.0322573 0.0522412,-0.0705362 0.0698113,-0.11482 0.0178089,-0.044292 0.0305685,-0.0929168 0.0387566,-0.145874 0.00794066,-0.0531964 0.0120347,-0.109284 0.0117873,-0.168502 0.000247346,-0.0592095 -0.00384666,-0.115297 -0.0117873,-0.168255 -0.008188,-0.0527103 -0.0209476,-0.101096 -0.0387566,-0.145149 -0.0175701,-0.0438058 -0.040923,-0.0818374 -0.0698113,-0.114095 -0.0288798,-0.0320185 -0.0642673,-0.0568128 -0.105907,-0.0743829 -0.0416479,-0.0175701 -0.0905116,-0.0264745 -0.146352,-0.0267134 -0.055849,0.000238817 -0.104713,0.00914327 -0.146113,0.0267134 -0.0416479,0.0175701 -0.0767881,0.0423644 -0.105676,0.0743829 -0.028641,0.0322573 -0.051755,0.0702889 -0.0693251,0.114095 -0.0175701,0.0440532 -0.0303297,0.0924392 -0.0382704,0.145149 -0.00794066,0.0529576 -0.0117958,0.109045 -0.0117958,0.168255 0,0.059218 0.00385519,0.115306 0.0117958,0.168502 0.00794066,0.0529576 0.0207003,0.101582 0.0382704,0.145874 0.0175701,0.0442835 0.0406841,0.0825624 0.0693251,0.11482 0.0288883,0.0324961 0.0640285,0.0575293 0.105676,0.0753382 0.0414006,0.0178174 0.0902642,0.0267219 0.146113,0.0269607zm0 -0.170421c-0.0349099,-0.000247346 -0.064037,-0.00962943 -0.0873814,-0.0279245 -0.0233529,-0.0182951 -0.0418868,-0.0440532 -0.0553628,-0.0767881 -0.0137234,-0.032735 -0.0233529,-0.0710053 -0.0293659,-0.114581 -0.00578278,-0.0438058 -0.00866564,-0.0909892 -0.00842682,-0.14178 -0.000238817,-0.0500662 0.00264404,-0.0967634 0.00842682,-0.139853 0.00601307,-0.0430808 0.0156425,-0.0808736 0.0293659,-0.11337 0.0134761,-0.0322573 0.03201,-0.0577766 0.0553628,-0.0758243 0.0233443,-0.0182951 0.0524715,-0.0274469 0.0873814,-0.0276857 0.0349014,0.000238817 0.0640285,0.00939062 0.0873728,0.0276857 0.0233529,0.0180477 0.0418868,0.043567 0.0553628,0.0758243 0.0137234,0.0324961 0.0235917,0.0702889 0.0293659,0.11337 0.00578278,0.0430894 0.00866564,0.0897866 0.00842682,0.139853 0.000238817,0.0507912 -0.00264404,0.0979746 -0.00842682,0.14178 -0.00577425,0.0435755 -0.0156425,0.0818459 -0.0293659,0.114581 -0.0134761,0.032735 -0.03201,0.0584931 -0.0553628,0.0767881 -0.0233443,0.0182951 -0.0524715,0.0276772 -0.0873728,0.0279245z"/>
 </g>
</svg>
